<svg xmlns="http://www.w3.org/2000/svg" xmlns:xlink="http://www.w3.org/1999/xlink" width="0" height="0" style="display:none;"><symbol viewBox="0 0 24 24" id="telegram-2-line"><path d="M17.0943 7.14643C17.6874 6.93123 17.9818 6.85378 18.1449 6.82608C18.1461 6.87823 18.1449 6.92051 18.1422 6.94825C17.9096 9.39217 16.8906 15.4048 16.3672 18.2026C16.2447 18.8578 16.1507 19.1697 15.5179 18.798C15.1014 18.5532 14.7245 18.2452 14.3207 17.9805C12.9961 17.1121 11.1 15.8189 11.2557 15.8967C9.95162 15.0373 10.4975 14.5111 11.2255 13.8093C11.3434 13.6957 11.466 13.5775 11.5863 13.4525C11.64 13.3967 11.9027 13.1524 12.2731 12.8081C13.4612 11.7035 15.7571 9.56903 15.8151 9.32202C15.8246 9.2815 15.8334 9.13045 15.7436 9.05068C15.6539 8.97092 15.5215 8.9982 15.4259 9.01989C15.2904 9.05064 13.1326 10.4769 8.95243 13.2986C8.33994 13.7192 7.78517 13.9242 7.28811 13.9134L7.29256 13.9156C6.63781 13.6847 5.9849 13.4859 5.32855 13.286C4.89736 13.1546 4.46469 13.0228 4.02904 12.8812C3.92249 12.8466 3.81853 12.8137 3.72083 12.783C8.24781 10.8109 11.263 9.51243 12.7739 8.884C14.9684 7.97124 16.2701 7.44551 17.0943 7.14643ZM19.5169 5.21806C19.2635 5.01244 18.985 4.91807 18.7915 4.87185C18.5917 4.82412 18.4018 4.80876 18.2578 4.8113C17.7814 4.81969 17.2697 4.95518 16.4121 5.26637C15.5373 5.58382 14.193 6.12763 12.0058 7.03736C10.4638 7.67874 7.39388 9.00115 2.80365 11.001C2.40046 11.1622 2.03086 11.3451 1.73884 11.5619C1.46919 11.7622 1.09173 12.1205 1.02268 12.6714C0.970519 13.0874 1.09182 13.4714 1.33782 13.7738C1.55198 14.037 1.82635 14.1969 2.03529 14.2981C2.34545 14.4483 2.76276 14.5791 3.12952 14.6941C3.70264 14.8737 4.27444 15.0572 4.84879 15.233C6.62691 15.7773 8.09066 16.2253 9.7012 17.2866C10.8825 18.0651 12.041 18.8775 13.2243 19.6531C13.6559 19.936 14.0593 20.2607 14.5049 20.5224C14.9916 20.8084 15.6104 21.0692 16.3636 20.9998C17.5019 20.8951 18.0941 19.8479 18.3331 18.5703C18.8552 15.7796 19.8909 9.68351 20.1332 7.13774C20.1648 6.80544 20.1278 6.433 20.097 6.25318C20.0653 6.068 19.9684 5.58448 19.5169 5.21806Z"></path></symbol><symbol viewBox="0 0 24 24" id="qq-line"><path d="M17.5359 12.5144L16.8402 10.7175C16.8408 10.6968 16.8494 10.3429 16.8494 10.1604C16.8494 7.08792 15.448 4.0003 12.0012 4C8.55459 4.0003 7.15292 7.08792 7.15292 10.1604C7.15292 10.3429 7.16151 10.6968 7.16209 10.7175L6.4667 12.5144C6.27608 13.0285 6.08776 13.564 5.94988 14.0232C5.29262 16.2126 5.50559 17.1186 5.66783 17.139C6.01581 17.1823 7.02221 15.4908 7.02221 15.4908C7.02221 16.4704 7.5095 17.7487 8.56405 18.6719C8.16963 18.7976 7.68635 18.9911 7.37564 19.2284C7.09645 19.442 7.13142 19.6594 7.18158 19.7473C7.40258 20.1329 10.9713 19.9935 12.0017 19.8733C13.0319 19.9935 16.6009 20.1329 16.8216 19.7473C16.872 19.6594 16.9067 19.442 16.6275 19.2284C16.3168 18.9911 15.8333 18.7976 15.4386 18.6716C16.4928 17.7487 16.9801 16.4704 16.9801 15.4908C16.9801 15.4908 17.9868 17.1823 18.3348 17.139C18.4967 17.1186 18.7131 16.2108 18.0524 14.0232C17.9125 13.56 17.7265 13.0285 17.5359 12.5144ZM18.5574 20.7407C18.1843 21.3926 17.7237 21.6334 17.1187 21.7981C16.8792 21.8633 16.621 21.9056 16.325 21.936C15.8844 21.9814 15.3392 22.001 14.712 22C13.786 21.9985 12.693 21.9491 12.0017 21.884C11.3103 21.9491 10.2173 21.9985 9.29129 22C8.66414 22.001 8.11889 21.9814 7.67832 21.936C7.38236 21.9056 7.12409 21.8633 6.88467 21.7981C6.27994 21.6335 5.81954 21.393 5.44496 20.7393C5.15165 20.2258 5.07747 19.6406 5.20612 19.0866C4.61376 18.9546 4.20483 18.6045 3.92733 18.1757C3.77911 17.9466 3.68408 17.7127 3.61845 17.4663C3.53001 17.1344 3.49486 16.7666 3.50184 16.3601C3.51532 15.5749 3.68902 14.5984 4.03435 13.4481C4.17427 12.9821 4.3614 12.4396 4.6015 11.7926L5.15467 10.3632C5.1536 10.287 5.15292 10.2154 5.15292 10.1604C5.15292 5.6047 7.58875 2.00038 12.0013 2C16.4138 2.00038 18.8494 5.60454 18.8494 10.1604C18.8494 10.2154 18.8487 10.2869 18.8477 10.3631L19.401 11.7923L19.4112 11.8191C19.636 12.4254 19.8242 12.9722 19.967 13.445C20.3145 14.5956 20.4889 15.5735 20.5018 16.361C20.5085 16.768 20.4728 17.1365 20.3837 17.4689C20.3178 17.7148 20.2226 17.9483 20.0746 18.1768C19.7976 18.6041 19.3905 18.9532 18.7974 19.0862C18.9266 19.6411 18.8523 20.2274 18.5574 20.7407Z"></path></symbol><symbol viewBox="0 0 24 24" id="weibo-line"><path d="M20.1945 14.1973C20.1945 17.5586 15.6658 20.6206 10.2693 20.6206C5.31907 20.6206 1.00098 18.1885 1.00098 14.5338C1.00098 12.5873 2.1808 10.447 4.24042 8.44571C7.0727 5.69957 10.4695 4.41277 12.0994 5.99781C12.5966 6.48041 12.8225 7.11988 12.8178 7.85577C14.7934 7.28031 16.4689 7.45174 17.3006 8.60768C17.7497 9.2307 17.8332 9.98744 17.6268 10.8152C19.1382 11.4259 20.1945 12.5847 20.1945 14.1973ZM15.755 12.1279C15.3691 11.7166 15.3549 11.2078 15.5572 10.7169C15.7655 10.2087 15.7701 9.90467 15.6776 9.77646C15.4134 9.40925 14.1443 9.41428 12.4833 10.0883C12.4306 10.1106 12.3609 10.1367 12.2765 10.1623C12.1789 10.1917 12.0794 10.2147 11.9744 10.2286C11.6296 10.274 11.3028 10.2293 10.9913 9.96287C10.572 9.60419 10.5175 9.10776 10.6694 8.64655C10.8835 7.97702 10.8482 7.57054 10.7057 7.43232C10.5197 7.25137 9.92883 7.24087 9.04745 7.57477C7.97823 7.97981 6.74875 8.79941 5.63339 9.88084C3.92586 11.54 3.00098 13.2178 3.00098 14.5338C3.00098 16.7755 6.27688 18.6206 10.2693 18.6206C14.6892 18.6206 18.1945 16.2506 18.1945 14.1973C18.1945 13.4588 17.558 12.8585 16.5218 12.5446C16.1276 12.4316 15.9855 12.3736 15.755 12.1279ZM22.8091 10.5099C22.6705 11.0445 22.1247 11.3655 21.5901 11.2268C21.0555 11.0882 20.7345 10.5424 20.8732 10.0078C20.9577 9.68188 21.001 9.34424 21.001 9C21.001 6.79086 19.2101 5 17.001 5C16.7223 5 16.448 5.02834 16.1806 5.08401C15.6399 5.19657 15.1103 4.84949 14.9977 4.3088C14.8852 3.76811 15.2323 3.23854 15.773 3.12599C16.1743 3.04244 16.5852 3 17.001 3C20.3147 3 23.001 5.68629 23.001 9C23.001 9.514 22.9361 10.0203 22.8091 10.5099Z"></path></symbol><symbol viewBox="0 0 24 24" id="tiktok-line"><path d="M11.0004 2V8.41396C10.5947 8.33909 10.1768 8.3 9.75039 8.3C5.96724 8.3 2.90039 11.3668 2.90039 15.15C2.90039 18.9332 5.96724 22 9.75039 22C13.5335 22 16.6004 18.9332 16.6004 15.15V11.4136C17.6366 11.8539 18.7662 12.1 20.0005 12.1H21.0005V6.5H20.0005C18.0966 6.5 16.6004 4.96259 16.6004 3V2H11.0004ZM13.0004 4H14.688C15.0818 6.22009 16.7673 7.99607 19.0005 8.4091V10.0282C17.9624 9.87602 17.0253 9.48645 16.1567 8.905L14.6004 7.86327V15.15C14.6004 17.8286 12.429 20 9.75039 20C7.07181 20 4.90039 17.8286 4.90039 15.15C4.90039 12.4714 7.07181 10.3 9.75039 10.3C9.83431 10.3 9.91769 10.3021 10.0005 10.3063V11.9095C9.91795 11.9032 9.83454 11.9 9.75039 11.9C7.95547 11.9 6.50039 13.3551 6.50039 15.15C6.50039 16.9449 7.95547 18.4 9.75039 18.4C11.5453 18.4 13.0004 16.9449 13.0004 15.15C13.0004 11.4334 12.9992 7.71665 13.0004 4ZM8.50039 15.15C8.50039 14.4596 9.06003 13.9 9.75039 13.9C10.4407 13.9 11.0004 14.4596 11.0004 15.15C11.0004 15.8404 10.4407 16.4 9.75039 16.4C9.06003 16.4 8.50039 15.8404 8.50039 15.15Z"></path></symbol><symbol viewBox="0 0 24 24" id="zcool-line"><path d="M8.26158 8.26022C5.8379 8.80266 4.00098 11.2081 4.00098 13.9355C4.00098 17.1958 6.64362 19.8387 9.90338 19.8387C12.7548 19.8387 15.1852 17.8007 15.7043 15.033C15.8238 14.3962 16.2442 13.8568 16.8326 13.5855C17.3154 13.3628 17.7433 13.1123 18.1174 12.8418C17.2537 12.2391 16.9306 10.9804 17.6467 10.0078C18.2274 9.21897 18.6973 8.34856 19.0382 7.35686C17.9545 7.86679 16.7372 8.29346 15.3703 8.62203C14.1085 8.92532 12.9778 7.98421 12.9039 6.80753C11.7237 7.38016 10.2337 7.81884 8.26158 8.26022ZM19.2572 11.1935C20.4234 11.1935 21.1735 10.7697 22.001 10.6071C21.6763 12.0553 20.5 14.0968 17.67 15.4017C16.9827 19.066 13.7668 21.8387 9.90338 21.8387C5.539 21.8387 2.00098 18.3003 2.00098 13.9355C2.00098 10.2901 4.46846 7.05968 7.82477 6.30851C11.746 5.4309 13.5286 4.74194 14.9016 2C15.5905 3.33333 15.591 4.89247 14.9029 6.67742C17.718 6.00736 19.9758 4.82457 21.6763 3.12903C21.6763 7.93116 19.8537 10.315 19.2572 11.1935ZM13.4176 15.1256C14.001 15.2715 14.001 15.9581 14.001 16.1466V17.1675C14.001 17.7294 13.6593 17.9405 13.1574 17.9405H7.7428C7.26775 17.8541 7.00863 17.595 7.00863 17.1631V16.2129C7.00863 15.7378 7.22456 15.3922 7.44049 15.1331L10.5931 11.7642H7.52686C7.22456 11.7642 7.00863 11.5483 7.00863 11.1595C6.96544 10.4253 7.095 9.25914 7.65642 9C7.7428 9 7.7428 9.12957 7.7428 9.17276C7.65642 9.34553 7.7428 9.4751 7.95873 9.4751H11.8455C12.7092 9.4751 13.2275 9.4751 13.5298 9.38872C13.6593 9.34553 13.7457 9.38872 13.7025 9.51829C13.6161 9.82063 13.6593 10.1662 13.6593 10.4685C13.6593 11.4619 13.6593 11.8506 12.882 12.628L10.2044 15.565L13.0531 15.5632C13.3696 15.5632 13.4176 15.4173 13.4176 15.1256Z"></path></symbol><symbol viewBox="0 0 24 24" id="wechat-line"><path d="M10.0014 14.6757C10.0011 14.6551 10.001 14.6345 10.001 14.6138C10.001 12.1055 12.0175 9.99564 14.7539 9.38092C14.3904 7.07873 11.9602 5.19995 8.90098 5.19995C5.58037 5.19995 3.00098 7.41344 3.00098 9.9793C3.00098 10.9487 3.36131 11.88 4.04082 12.6781C4.0728 12.7157 4.12443 12.7717 4.19342 12.8427C4.78537 13.4517 5.13709 14.2457 5.19546 15.0805C5.90857 14.6683 6.74285 14.5123 7.55832 14.6392C7.72416 14.665 7.85986 14.6847 7.96345 14.6982C8.27111 14.7383 8.58419 14.7586 8.90098 14.7586C9.27825 14.7586 9.64595 14.7301 10.0014 14.6757ZM10.4581 16.627C9.95467 16.7133 9.43399 16.7586 8.90098 16.7586C8.49441 16.7586 8.09502 16.7323 7.70499 16.6815C7.58312 16.6656 7.4317 16.6436 7.25073 16.6154C6.87693 16.5572 6.49436 16.6321 6.1713 16.8268L4.26653 17.9745C4.12052 18.0646 3.94891 18.1057 3.77733 18.0916C3.33814 18.0554 3.01178 17.6744 3.04837 17.2405L3.19859 15.4596C3.23664 15.0086 3.07664 14.5632 2.75931 14.2367C2.66182 14.1364 2.5814 14.0491 2.51802 13.9747C1.56406 12.8542 1.00098 11.4732 1.00098 9.9793C1.00098 6.23517 4.53793 3.19995 8.90098 3.19995C12.9601 3.19995 16.3041 5.82699 16.7504 9.20788C20.1225 9.36136 22.801 11.723 22.801 14.6138C22.801 15.8068 22.3448 16.9097 21.572 17.8044C21.5206 17.8639 21.4555 17.9336 21.3765 18.0137C21.1194 18.2744 20.9898 18.6301 21.0206 18.9903L21.1423 20.4125C21.172 20.759 20.9076 21.0632 20.5518 21.0921C20.4128 21.1034 20.2738 21.0706 20.1555 20.9986L18.6124 20.0821C18.3506 19.9266 18.0407 19.8668 17.7379 19.9133C17.5913 19.9358 17.4686 19.9533 17.3699 19.966C17.0539 20.0066 16.7303 20.0277 16.401 20.0277C13.7074 20.0277 11.4025 18.6201 10.4581 16.627ZM17.4346 17.9364C18.0019 17.8494 18.5793 17.911 19.1105 18.1111C19.2492 17.5503 19.5373 17.0304 19.9524 16.6094C20.0027 16.5585 20.0388 16.5198 20.0584 16.4971C20.5467 15.9318 20.801 15.2839 20.801 14.6138C20.801 12.8095 18.8983 11.2 16.401 11.2C13.9037 11.2 12.001 12.8095 12.001 14.6138C12.001 16.4181 13.9037 18.0277 16.401 18.0277C16.6424 18.0277 16.8809 18.0124 17.115 17.9823C17.1957 17.972 17.3029 17.9566 17.4346 17.9364Z"></path></symbol></svg>